<?xml version="1.0" standalone="no"?>
<!DOCTYPE svg PUBLIC "-//W3C//DTD SVG 20010904//EN"
 "http://www.w3.org/TR/2001/REC-SVG-20010904/DTD/svg10.dtd">
<svg version="1.0" xmlns="http://www.w3.org/2000/svg"
 width="3300.000000pt" height="3300.000000pt" viewBox="0 0 3300.000000 3300.000000"
 preserveAspectRatio="xMidYMid meet">
<metadata>
Created by potrace 1.14, written by Peter Selinger 2001-2017
</metadata>
<g transform="translate(0.000000,3300.000000) scale(0.100000,-0.100000)"
fill="#000000" stroke="none">
<path d="M17567 31484 c-1 -1 -72 -5 -157 -8 -262 -11 -373 -18 -480 -31 -19
-3 -60 -7 -90 -10 -76 -8 -220 -25 -250 -30 -14 -2 -97 -15 -185 -29 -88 -14
-173 -28 -190 -31 -96 -19 -195 -40 -305 -66 -69 -16 -133 -32 -143 -34 -125
-29 -587 -167 -652 -195 -11 -4 -94 -36 -185 -70 -91 -35 -187 -73 -215 -85
-27 -12 -95 -41 -150 -65 -196 -86 -587 -289 -763 -398 -20 -12 -54 -32 -76
-45 -58 -33 -63 -37 -176 -111 -245 -163 -616 -441 -752 -565 -18 -16 -44 -39
-58 -51 -187 -158 -562 -534 -760 -760 -298 -341 -624 -788 -845 -1160 -38
-63 -71 -118 -75 -122 -3 -4 -53 1 -110 13 -58 11 -121 22 -140 25 -19 3 -75
12 -125 19 -49 8 -121 17 -160 20 -38 3 -83 8 -100 10 -209 26 -908 26 -1075
0 -14 -2 -56 -6 -95 -10 -86 -7 -152 -15 -185 -20 -14 -3 -38 -7 -55 -9 -16
-2 -50 -7 -75 -11 -25 -4 -58 -9 -75 -11 -83 -12 -287 -55 -410 -85 -44 -11
-89 -22 -99 -24 -34 -8 -218 -65 -301 -95 -163 -58 -223 -83 -363 -151 -446
-217 -702 -483 -855 -889 -50 -132 -92 -286 -111 -400 -3 -19 -7 -44 -10 -55
-15 -79 -32 -238 -41 -400 -4 -60 -8 -111 -10 -113 -2 -2 -57 -4 -122 -5 -111
-2 -122 -4 -160 -29 -76 -50 -75 -46 -75 -529 l0 -428 26 -44 c41 -71 72 -81
261 -82 l160 0 11 -60 c6 -33 21 -112 33 -175 35 -192 55 -284 86 -415 13 -55
26 -111 29 -125 64 -307 319 -1134 440 -1424 126 -302 317 -568 546 -758 36
-29 66 -58 68 -63 2 -5 -29 -21 -70 -37 -40 -15 -82 -32 -93 -37 -87 -42 -519
-187 -927 -312 -691 -211 -897 -291 -1112 -433 -73 -49 -178 -147 -230 -215
-61 -79 -120 -197 -131 -261 -3 -18 -8 -36 -10 -39 -16 -26 -23 -208 -10 -281
64 -380 461 -780 1081 -1088 158 -79 240 -115 386 -173 338 -135 741 -257
1128 -343 83 -18 146 -30 295 -52 141 -21 138 -21 265 -34 217 -21 180 -18
485 -35 82 -5 709 -5 820 -1 137 6 364 17 420 21 28 2 93 7 145 10 52 3 111 8
130 10 19 2 73 7 120 10 47 3 96 8 110 10 14 3 54 7 90 10 36 3 81 7 100 10
19 2 62 7 95 10 33 3 74 8 90 10 17 2 59 7 95 10 36 4 73 9 82 11 9 1 48 6 85
9 37 4 70 9 73 10 3 2 34 6 69 10 34 4 70 8 80 10 10 2 42 6 72 10 30 3 61 8
69 10 8 2 40 7 70 10 30 3 62 8 70 10 14 4 49 9 127 20 15 2 42 6 58 9 17 3
89 14 160 26 184 29 182 29 270 45 44 8 94 17 110 20 17 2 41 7 55 10 14 3 52
10 85 15 62 10 92 16 135 25 14 3 50 10 80 16 30 5 98 19 150 29 93 19 130 26
180 36 14 2 45 9 70 14 25 6 56 13 70 15 21 4 69 15 90 20 74 20 103 17 178
-18 183 -84 302 -131 517 -206 77 -27 139 -53 139 -58 -1 -4 -5 -33 -8 -64 -4
-31 -8 -65 -10 -75 -2 -11 -7 -44 -11 -74 -4 -30 -9 -63 -11 -74 -2 -10 -6
-44 -9 -75 -4 -31 -8 -63 -10 -71 -4 -16 -12 -69 -20 -140 -3 -25 -7 -56 -10
-70 -2 -14 -7 -47 -10 -75 -3 -27 -12 -99 -20 -160 -9 -60 -17 -131 -20 -158
-3 -26 -7 -60 -9 -75 -7 -38 -14 -97 -22 -167 -3 -33 -8 -68 -9 -77 -2 -9 -7
-48 -10 -85 -4 -37 -9 -77 -11 -88 -2 -11 -6 -45 -9 -75 -3 -30 -8 -75 -11
-100 -3 -25 -7 -61 -9 -80 -6 -60 -16 -154 -20 -180 -2 -14 -7 -59 -10 -100
-4 -41 -10 -78 -13 -82 -4 -3 -65 -30 -137 -58 -453 -182 -919 -436 -1295
-704 -83 -59 -304 -229 -326 -250 -6 -6 -33 -29 -59 -51 -158 -131 -502 -474
-735 -734 -41 -46 -79 -89 -85 -95 -23 -26 -133 -153 -151 -174 -10 -13 -28
-34 -39 -46 -11 -13 -34 -38 -50 -57 -17 -19 -47 -55 -67 -80 -21 -25 -43 -46
-50 -46 -32 0 -236 -20 -282 -27 -17 -3 -53 -8 -81 -11 -27 -3 -61 -8 -75 -10
-14 -3 -38 -7 -55 -9 -123 -20 -285 -49 -365 -67 -52 -11 -106 -23 -120 -25
-59 -12 -280 -70 -395 -106 -582 -177 -985 -389 -1420 -745 -276 -226 -612
-568 -834 -849 -139 -174 -177 -227 -288 -394 -35 -52 -67 -99 -71 -105 -4 -5
-18 -28 -30 -50 -17 -29 -41 -50 -90 -78 -349 -196 -741 -551 -1041 -942 -43
-56 -43 -56 -75 -100 -17 -22 -32 -42 -36 -45 -7 -7 -203 -300 -216 -325 -6
-11 -35 -63 -65 -115 -107 -186 -208 -415 -289 -658 -35 -105 -91 -307 -104
-372 -3 -14 -12 -56 -20 -95 -25 -116 -41 -211 -52 -310 -3 -33 -8 -68 -9 -77
-20 -102 -28 -625 -13 -798 13 -151 16 -174 39 -320 11 -76 46 -247 61 -305 6
-22 11 -44 12 -50 5 -23 28 -102 36 -125 4 -14 23 -72 41 -130 17 -58 36 -109
40 -115 5 -5 9 -15 9 -22 0 -33 153 -365 232 -502 26 -46 48 -86 48 -88 0 -6
191 -291 213 -318 114 -141 211 -261 216 -265 3 -3 29 -32 56 -65 28 -33 59
-70 70 -81 11 -12 47 -52 80 -90 252 -289 665 -699 906 -899 155 -128 204
-168 264 -215 39 -30 72 -57 75 -60 3 -3 55 -42 115 -85 61 -44 115 -83 120
-88 68 -56 546 -367 564 -367 6 0 11 -3 11 -8 0 -4 17 -16 38 -27 20 -11 110
-61 200 -112 129 -74 511 -267 707 -358 182 -85 749 -314 845 -341 8 -2 98
-32 200 -67 165 -57 470 -151 620 -192 142 -39 499 -129 620 -156 74 -17 142
-32 150 -34 50 -11 522 -104 555 -109 22 -4 90 -15 150 -26 61 -11 126 -22
145 -25 19 -3 46 -7 60 -10 14 -2 49 -7 79 -10 30 -3 57 -8 61 -10 3 -2 33 -7
65 -10 33 -4 68 -9 79 -11 10 -2 44 -6 75 -10 31 -3 63 -7 71 -9 8 -1 40 -6
70 -9 101 -13 135 -17 160 -21 14 -2 57 -6 95 -10 39 -3 77 -8 85 -10 8 -2 50
-7 92 -10 43 -3 88 -8 100 -10 13 -2 61 -6 108 -10 47 -3 99 -8 115 -10 17 -2
68 -7 115 -10 47 -3 103 -8 125 -10 22 -2 83 -7 135 -10 52 -3 120 -8 150 -10
31 -2 117 -7 190 -11 74 -3 162 -7 195 -9 274 -14 561 -19 1115 -19 642 0 920
5 1530 28 402 16 536 21 740 31 58 3 148 7 200 10 100 4 243 12 370 20 41 3
116 7 165 10 96 5 193 12 290 19 33 3 101 8 150 11 50 3 108 8 130 10 22 2 81
7 130 10 50 3 106 8 125 10 19 2 73 7 120 10 47 4 96 8 110 10 14 2 62 7 107
10 46 3 91 8 100 9 10 2 56 7 103 11 47 3 96 8 110 10 25 4 94 11 185 21 59 6
116 13 165 19 19 3 60 7 90 10 30 4 66 8 80 10 25 4 51 7 160 21 30 3 62 8 70
9 8 1 40 6 70 10 30 4 64 9 75 11 11 3 38 6 60 9 22 3 83 12 135 20 52 8 109
16 125 19 27 4 286 50 345 61 13 3 42 7 64 11 22 3 43 7 46 9 4 2 29 7 56 11
27 3 52 8 55 10 3 2 19 6 35 8 64 12 263 56 394 88 47 11 92 22 100 24 53 12
285 75 330 89 30 9 64 18 75 20 35 8 346 111 476 159 160 58 408 161 541 224
57 27 121 58 143 68 106 49 453 241 610 337 174 107 401 253 403 259 2 4 8 8
12 8 10 0 252 159 260 170 3 4 23 19 45 33 94 62 265 194 405 312 302 254 624
575 835 833 33 41 77 93 97 118 148 177 443 607 568 829 13 22 38 67 57 100
56 99 164 314 161 317 -2 2 7 17 20 35 12 17 22 35 22 40 0 6 15 41 34 79 154
319 362 959 420 1294 2 14 7 36 10 50 3 14 7 39 10 55 2 17 9 59 15 95 6 36
13 88 16 115 3 28 8 60 10 72 2 12 6 57 10 100 4 43 9 89 11 103 3 14 6 124 9
245 3 188 -2 277 -20 380 -1 11 -6 38 -10 59 -25 141 -106 351 -198 513 -132
230 -352 477 -597 669 -115 90 -289 205 -450 298 -100 57 -323 167 -460 226
-80 34 -153 66 -163 72 -33 17 -238 89 -444 157 l-202 66 87 90 c48 50 116
124 152 165 36 41 76 87 88 101 214 245 417 581 494 814 173 522 26 840 -569
1229 -72 47 -134 86 -137 86 -3 0 -29 14 -58 31 -178 106 -585 294 -893 414
-66 25 -129 50 -140 55 -123 55 -912 316 -1043 345 -10 2 -82 23 -162 45 -133
38 -539 143 -592 154 -13 3 -75 17 -138 31 -63 15 -128 29 -145 31 -16 3 -37
7 -45 10 -13 5 -61 15 -140 30 -14 3 -79 16 -145 29 -66 13 -136 27 -155 30
-19 3 -71 12 -115 20 -44 8 -93 17 -110 19 -52 9 -159 25 -200 31 -23 3 -50 7
-61 9 -12 2 -45 7 -74 11 -29 4 -60 8 -69 10 -9 1 -43 6 -76 9 -33 4 -73 9
-90 11 -71 9 -124 15 -190 20 -38 3 -86 7 -105 10 -56 7 -351 28 -382 27 -10
0 -18 1 -18 2 0 2 9 55 19 117 20 118 22 127 46 294 9 55 17 115 20 133 3 17
7 49 10 70 3 20 8 46 10 57 2 11 7 47 11 79 3 33 7 68 10 79 2 11 6 45 10 76
3 31 7 63 9 71 1 8 6 44 10 80 4 36 9 73 11 83 2 10 8 64 14 120 6 56 13 113
15 127 3 23 10 86 20 190 3 25 7 65 10 90 2 25 7 74 10 110 4 36 8 81 10 100
4 43 16 188 20 250 4 62 15 223 20 294 12 160 19 460 17 727 l-1 295 97 24
c53 13 102 25 107 26 6 2 21 5 35 8 171 37 845 243 913 278 10 5 26 11 35 13
32 6 356 137 525 211 190 85 470 223 596 295 46 27 85 49 87 49 1 0 46 26 101
59 386 230 685 447 1028 745 147 128 526 516 607 623 12 15 25 30 28 33 10 8
173 214 190 240 8 12 20 28 25 34 18 18 126 174 196 281 57 86 89 139 180 293
178 303 363 717 493 1102 60 179 159 523 172 595 2 17 7 38 10 47 3 9 7 25 9
35 2 10 10 50 18 88 9 39 18 84 21 100 42 233 55 308 60 350 4 28 11 77 16
110 5 33 11 87 15 120 3 33 8 78 10 100 13 114 25 263 30 365 l2 44 150 1
c159 1 177 6 227 57 39 41 42 86 41 513 -1 463 -1 462 -78 513 -39 26 -46 27
-195 29 -84 1 -157 4 -160 8 -7 6 -8 13 -16 87 -13 118 -19 161 -51 338 -129
706 -376 1338 -772 1972 -46 73 -177 266 -200 293 -5 6 -20 26 -33 45 -14 19
-30 42 -37 50 -6 8 -51 65 -100 125 -48 61 -99 124 -114 140 -300 343 -528
564 -914 883 -11 10 -78 61 -150 114 -71 54 -134 101 -140 106 -46 37 -356
246 -450 302 -22 13 -41 28 -43 32 -2 4 -8 8 -13 8 -5 0 -39 19 -76 42 -38 22
-84 50 -103 61 -19 11 -86 48 -148 84 -267 151 -652 337 -992 478 -526 218
-1061 392 -1655 538 -117 29 -212 50 -222 49 -2 -1 -17 4 -35 9 -28 8 -155 36
-249 54 -39 8 -192 37 -216 41 -13 2 -35 6 -50 9 -171 30 -176 31 -270 45 -43
6 -89 13 -103 16 -21 3 -152 20 -305 40 -22 2 -51 7 -65 9 -14 2 -59 7 -100
11 -41 3 -87 7 -102 9 -14 2 -64 6 -110 10 -46 3 -94 8 -108 10 -14 2 -72 6
-130 10 -58 3 -130 8 -160 10 -156 11 -775 26 -783 19z"/>
</g>
</svg>
