<?xml version="1.0" encoding="utf-8"?>
<!-- Generator: Adobe Illustrator 27.7.0, SVG Export Plug-In . SVG Version: 6.00 Build 0)  -->
<svg version="1.1" xmlns="http://www.w3.org/2000/svg" xmlns:xlink="http://www.w3.org/1999/xlink" x="0px" y="0px"
	 viewBox="0 0 792 792" style="enable-background:new 0 0 792 792;" xml:space="preserve">
<style type="text/css">
	.st0{display:none;}
	.st1{display:inline;}
	.st2{display:inline;fill:#05839F;}
	.st3{fill:#FFFFFF;}
	.st4{fill:#D49B9F;}
	.st5{fill:none;stroke:#000000;stroke-width:18;stroke-miterlimit:10;}
	.st6{fill:none;stroke:#000000;stroke-width:18;stroke-linecap:round;stroke-miterlimit:10;}
	.st7{fill:#231F20;stroke:#000000;stroke-miterlimit:10;}
	.st8{fill:none;stroke:#000000;stroke-width:14;stroke-linecap:round;stroke-miterlimit:10;}
	.st9{stroke:#107D98;stroke-width:14;stroke-miterlimit:10;}
	.st10{fill:#FFFFFF;stroke:#000000;stroke-width:14;stroke-miterlimit:10;}
	.st11{fill:#F9A51A;}
	.st12{fill:#FFFFFF;stroke:#231F20;stroke-width:9;stroke-linecap:round;stroke-miterlimit:10;}
	.st13{display:inline;fill:#FFFFFF;stroke:#000000;stroke-width:14;stroke-miterlimit:10;}
	.st14{display:inline;fill:#FFFFFF;}
	.st15{display:inline;fill:#FFFFFF;stroke:#231F20;stroke-width:9;stroke-linecap:round;stroke-miterlimit:10;}
	.st16{fill:#107D98;}
</style>
<g id="White_and_shadow">
	<path class="st3" d="M263.12,154.28c13.71-33.99,62.83-112.93,171.38-108.72c90.42,3.51,195.16,51.16,195.16,151.48
		c0,100.32-71.81,160.15-196.26,160.08c-57.6-0.04-109.09-7.13-138.7-46.05C258.96,264.07,246.34,195.89,263.12,154.28z"/>
	<path class="st3" d="M488.5,450.34c54.37,0,140.56,29.17,141.16,46.41s-31.09,42.43-31.09,42.43s71.31,11.83,70.9,51.86
		c-0.4,39.47-24.3,85.48-66.29,112.94c-33.64,22-61.09,38.51-205.89,42.08c-168.2,4.14-221.7-55.9-247.54-86.67
		c-25.84-30.77-22.4-74.02-6.07-99.81s32.56-31.69,32.56-31.69s11.83-22.37,35.12-39.01s60.25-17.79,60.25-17.79
		s9.73-13.28,31.32-33.08c21.58-19.8,43.45-17.43,43.45-17.43l8.97-71.42c0,0,38.29,7.26,58.17,7.61c19.88,0.35,80.76-2.5,80.76-2.5
		s-0.55,47.29-3.64,66.31C487.54,439.59,488.5,450.34,488.5,450.34z"/>
	<path class="st4" d="M604.76,283.73c0,0-51.66,28.85-138.21,44.28c-86.55,15.43-191.78-19.46-191.78-19.46s10.87,24.19,72.43,40.61
		c61.56,16.42,118.01,15.43,171.68,0C572.55,333.73,604.76,283.73,604.76,283.73z"/>
	<path class="st4" d="M471.42,355.11c0,0-24.12,32.73-70.2,44.63c-35.43,9.15-54.85,20.84-54.85,20.84l8.97-71.42
		c0,0,40.03,9.96,78.05,7.95C471.42,355.11,471.42,355.11,471.42,355.11z"/>
	<path class="st4" d="M130.89,607.95c0,0,41.79,79.29,266.4,77.98c243-1.42,272.17-71.54,272.17-71.54s-22.04,58.36-78.31,95.57
		s-95.23,34.98-211.43,36.55s-136.17-16.86-186.54-45.76S130.89,607.95,130.89,607.95z"/>
</g>
<g id="Main_outlines">
	<path class="st5" d="M263.12,154.28c13.71-33.99,62.83-112.93,171.38-108.72c90.42,3.51,195.16,51.16,195.16,151.48
		c0,100.32-71.81,160.15-196.26,160.08c-57.6-0.04-109.09-7.13-138.7-46.05C258.96,264.07,246.34,195.89,263.12,154.28z"/>
	<path class="st6" d="M355.35,349.16c-5.92,39.08-8.15,64.86-8.15,64.86s-28.54,8.32-51,29.94s-38.26,46.58-55.73,62.38
		c-17.47,15.8-38.89,33.42-38.89,33.42"/>
	<path class="st6" d="M488.5,450.34c54.37,0,140.56,29.17,141.16,46.41s-31.09,42.43-31.09,42.43s71.31,11.83,70.9,51.86
		c-0.4,39.47-24.3,85.48-66.29,112.94c-33.64,22-61.09,38.51-205.89,42.08c-168.2,4.14-221.7-55.9-247.54-86.67
		c-25.84-30.77-22.4-74.02-6.07-99.81s32.56-31.69,32.56-31.69s11.83-22.37,35.12-39.01s60.25-17.79,60.25-17.79"/>
	<polygon class="st7" points="481.59,487.61 527.1,502.5 479.93,502.5 	"/>
	<path class="st8" d="M580.61,506.32c-8.96,16.58-21.95,19.71-34.95,23.75"/>
	<path class="st8" d="M137.83,570.91c-6.93,35.47,32.25,40.34,32.25,40.34s-3.05,32.61,38.27,46.62"/>
	<path class="st8" d="M527.1,641.16c0,0,13.16-3.48,26.39-18.79c13.22-15.31,13.92-34.79,13.92-34.79s18.09,11.13,39.66,0"/>
	<path class="st8" d="M590.74,657.51c0,0,28.36-3.91,42.54-26.89"/>
	<path class="st8" d="M614.21,610.56c0,0,15.65,0,28.85-9.29c12.8-9.01,16.14-25.43,8.22-41.44"/>
	<path class="st6" d="M494.28,354.27c0,0,3.98,28.18-8.75,98.15s-9.34,50.89-14.11,98.6"/>
</g>
<g id="Glasses_1">
	<path d="M163.07,208.44h-7.64c-2.21,0-4-1.79-4-4v-18.66c0-2.21,1.79-4,4-4h7.64c2.21,0,4,1.79,4,4v18.66
		C167.07,206.65,165.28,208.44,163.07,208.44z"/>
	<path class="st9" d="M294.56,155.24c-16.52-31.25-100.94-25.77-119.29-2.74c-15.49,19.44-6.57,66.5,6.56,103.16
		c6.63,18.52,21.43,30.6,54,27.12c47.13-5.04,56.5-22.29,62.01-57.37C303.34,190.32,307,178.77,294.56,155.24z"/>
	<path d="M644.31,208.44H510.22c-2.21,0-4-1.79-4-4v-18.66c0-2.21,1.79-4,4-4h134.09c2.21,0,4,1.79,4,4v18.66
		C648.31,206.65,646.52,208.44,644.31,208.44z"/>
</g>
<g id="Bill">
	<path class="st10" d="M271.28,254.54c0,0-58.11,25.98-85.14,36.08c-27.03,10.1-49.98,11.7-50.12,26.41
		c-0.08,8.05,12.84,23.46,53.6,33.54c38.94,9.63,106.21-1.41,149.6-11.82c43.2-10.36,66.18-7.4,74.3-36.86"/>
	<path class="st11" d="M307.66,208.44c0,0-2.54,17.66-42.56,46.71c-33.47,24.3-50.98,27.41-80.04,40.57
		c-29.05,13.16-42.21,14.78-42.21,21.38c-0.01,11.51,30.45,22.92,57.01,29.05c35.63,8.22,78.94-2.19,119.51-9.87
		s85.52-7.13,93.74-19.19c8.22-12.06,12.06-24.67,12.06-24.67l-69.07-83.99H307.66z"/>
	<path class="st12" d="M271.61,286.9c7.5-6.36,12.09-11.64,15-20.82"/>
</g>
<g id="Bill_outline" class="st0">
	<path class="st13" d="M271.28,254.54c0,0-58.11,25.98-85.14,36.08c-27.03,10.1-49.98,11.7-50.12,26.41
		c-0.08,8.05,12.84,23.46,53.6,33.54c38.94,9.63,106.21-1.41,149.6-11.82c43.2-10.36,66.18-7.4,74.3-36.86"/>
	<path class="st14" d="M307.66,208.44c0,0-2.54,17.66-42.56,46.71c-33.47,24.3-50.98,27.41-80.04,40.57
		c-29.05,13.16-42.21,14.78-42.21,21.38c-0.01,11.51,30.45,22.92,57.01,29.05c35.63,8.22,78.94-2.19,119.51-9.87
		s85.52-7.13,93.74-19.19c8.22-12.06,12.06-24.67,12.06-24.67l-69.07-83.99H307.66z"/>
	<path class="st15" d="M271.61,286.9c7.5-6.36,12.09-11.64,15-20.82"/>
</g>
<g id="Glasses_2">
	<path class="st9" d="M357.2,159.76c19.74-31.25,120.6-25.77,142.53-2.74c18.51,19.44,7.85,66.5-7.84,103.16
		c-7.93,18.52-25.6,30.6-64.53,27.12c-56.31-5.04-67.51-22.29-74.09-57.37S342.33,183.3,357.2,159.76z"/>
	<rect x="300.5" y="181.77" class="st16" width="49.99" height="26.66"/>
</g>
</svg>
